
<svg width="80" height="80" viewBox="0 0 80 80" fill="none" xmlns="http://www.w3.org/2000/svg">
<rect x="0.5" y="0.5" width="79" height="79" rx="7.5" stroke="#AE9D98"/>
<path d="M54.2188 65.8063H58.1132C60.0839 65.8063 61.7026 64.2813 61.9372 62.3576L65.8082 23.6948H54.078V14.1934H49.4563V23.6948H37.7965L38.5003 29.1846C42.512 30.2872 46.2657 32.2813 48.5179 34.4866C51.8962 37.818 54.2188 41.2667 54.2188 46.8972V65.8063ZM14.1953 63.4602V61.1142H49.4563V63.4602C49.4563 64.7271 48.4006 65.8063 47.0399 65.8063H16.5414C15.251 65.8063 14.1953 64.7271 14.1953 63.4602ZM49.4563 47.0379C49.4563 28.2696 14.1953 28.2696 14.1953 47.0379H49.4563ZM14.1953 51.73H49.3859V56.4221H14.1953V51.73Z" fill="#AE9D98"/>
</svg>
