<svg width="41" height="41" viewBox="0 0 41 41" fill="none" xmlns="http://www.w3.org/2000/svg">
<circle cx="20.9212" cy="20.1893" r="19.9583" fill="url(#paint0_linear_298_18854)"/>
<path d="M28.2438 17.9714H17.7835C16.6281 17.9714 15.6914 18.9081 15.6914 20.0635V26.3397C15.6914 27.4951 16.6281 28.4318 17.7835 28.4318H28.2438C29.3993 28.4318 30.3359 27.4951 30.3359 26.3397V20.0635C30.3359 18.9081 29.3993 17.9714 28.2438 17.9714Z" stroke="white" stroke-width="2.25943" stroke-linecap="round" stroke-linejoin="round"/>
<path d="M26.1523 17.9706V15.8786C26.1523 15.3237 25.9319 14.7916 25.5396 14.3993C25.1472 14.0069 24.6151 13.7865 24.0602 13.7865H13.5999C13.045 13.7865 12.5129 14.0069 12.1206 14.3993C11.7282 14.7916 11.5078 15.3237 11.5078 15.8786V22.1548C11.5078 22.7096 11.7282 23.2418 12.1206 23.6341C12.5129 24.0264 13.045 24.2469 13.5999 24.2469H15.692" stroke="white" stroke-width="2.25943" stroke-linecap="round" stroke-linejoin="round"/>
<path d="M24.211 21.8829C24.12 21.7449 23.9879 21.6311 23.8287 21.5537C23.6695 21.4763 23.4892 21.4383 23.3072 21.4436H22.303C22.0367 21.4436 21.7813 21.5362 21.5929 21.701C21.4046 21.8658 21.2988 22.0892 21.2988 22.3223C21.2988 22.5553 21.4046 22.7788 21.5929 22.9436C21.7813 23.1084 22.0367 23.2009 22.303 23.2009H23.3072C23.5735 23.2009 23.829 23.2935 24.0173 23.4583C24.2056 23.6231 24.3114 23.8466 24.3114 24.0796C24.3114 24.3127 24.2056 24.5361 24.0173 24.7009C23.829 24.8657 23.5735 24.9583 23.3072 24.9583H22.303C22.121 24.9636 21.9408 24.9256 21.7816 24.8482C21.6224 24.7708 21.4902 24.657 21.3992 24.519" stroke="white" stroke-width="1.28035" stroke-linecap="round" stroke-linejoin="round"/>
<path d="M22.8047 24.9585V25.8372M22.8047 20.5652V21.4439V20.5652Z" stroke="white" stroke-width="1.28035" stroke-linecap="round" stroke-linejoin="round"/>
<defs>
<linearGradient id="paint0_linear_298_18854" x1="5.48176" y1="7.7624" x2="37.1138" y2="32.9927" gradientUnits="userSpaceOnUse">
<stop stop-color="#FF5900"/>
<stop offset="1" stop-color="#FF8340"/>
</linearGradient>
</defs>
</svg>
