<svg width="41" height="41" viewBox="0 0 41 41" fill="none" xmlns="http://www.w3.org/2000/svg">
<circle cx="20.8997" cy="20.1497" r="19.9583" fill="url(#paint0_linear_298_18870)"/>
<g clip-path="url(#clip0_298_18870)">
<path d="M27.6259 22.9246C26.749 22.0477 25.5596 21.5551 24.3195 21.5551H17.225C15.9849 21.5551 14.7956 22.0477 13.9187 22.9246C13.0418 23.8015 12.5492 24.9909 12.5492 26.231V28.0046C12.5492 28.3039 12.6681 28.591 12.8797 28.8027C13.0914 29.0143 13.3785 29.1333 13.6778 29.1333C13.9772 29.1333 14.2642 29.0143 14.4759 28.8027C14.6876 28.591 14.8065 28.3039 14.8065 28.0046V26.231C14.8065 25.5895 15.0613 24.9744 15.5149 24.5208C15.9684 24.0672 16.5836 23.8124 17.225 23.8124H24.3195C24.9609 23.8124 25.5761 24.0672 26.0297 24.5208C26.4833 24.9744 26.7381 25.5895 26.7381 26.231V28.0046C26.7381 28.3039 26.857 28.591 27.0686 28.8027C27.2803 29.0143 27.5674 29.1333 27.8667 29.1333C28.1661 29.1333 28.4531 29.0143 28.6648 28.8027C28.8765 28.591 28.9954 28.3039 28.9954 28.0046V26.231C28.9954 24.9909 28.5028 23.8015 27.6259 22.9246ZM28.6648 16.5648C28.4531 16.3532 28.1661 16.2343 27.8667 16.2343C27.5674 16.2343 27.2803 16.3532 27.0686 16.5648C26.857 16.7765 26.7381 17.0636 26.7381 17.3629V18.0079H26.0931C25.7938 18.0079 25.5067 18.1268 25.295 18.3384C25.0834 18.5501 24.9644 18.8372 24.9644 19.1365C24.9644 19.4359 25.0834 19.723 25.295 19.9346C25.5067 20.1463 25.7938 20.2652 26.0931 20.2652H26.7381V20.9101C26.7381 21.2095 26.857 21.4966 27.0686 21.7082C27.2803 21.9199 27.5674 22.0388 27.8667 22.0388C28.1661 22.0388 28.4531 21.9199 28.6648 21.7082C28.8765 21.4966 28.9954 21.2095 28.9954 20.9101V20.2652H29.6403C29.9397 20.2652 30.2268 20.1463 30.4384 19.9346C30.6501 19.723 30.769 19.4359 30.769 19.1365C30.769 18.8372 30.6501 18.5501 30.4384 18.3384C30.2268 18.1268 29.9397 18.0079 29.6403 18.0079H28.9954V17.3629C28.9954 17.0636 28.8765 16.7765 28.6648 16.5648ZM24.0786 12.283C23.2017 11.4061 22.0124 10.9134 20.7723 10.9134C19.5322 10.9134 18.3428 11.4061 17.4659 12.283C16.589 13.1599 16.0964 14.3492 16.0964 15.5893C16.0964 16.8294 16.589 18.0188 17.4659 18.8957C18.3428 19.7726 19.5322 20.2652 20.7723 20.2652C22.0124 20.2652 23.2017 19.7726 24.0786 18.8957C24.9555 18.0188 25.4482 16.8294 25.4482 15.5893C25.4482 14.3492 24.9555 13.1599 24.0786 12.283ZM19.8467 13.3548C20.1402 13.2333 20.4547 13.1707 20.7723 13.1707C21.4137 13.1707 22.0289 13.4256 22.4825 13.8791C22.936 14.3327 23.1908 14.9479 23.1908 15.5893C23.1908 16.2307 22.936 16.8459 22.4825 17.2995C22.0289 17.7531 21.4137 18.0079 20.7723 18.0079C20.4547 18.0079 20.1402 17.9453 19.8467 17.8238C19.5533 17.7022 19.2867 17.5241 19.0621 17.2995C18.8375 17.0749 18.6594 16.8083 18.5378 16.5149C18.4163 16.2214 18.3537 15.9069 18.3537 15.5893C18.3537 15.2717 18.4163 14.9572 18.5378 14.6638C18.6594 14.3703 18.8375 14.1037 19.0621 13.8791C19.2867 13.6545 19.5533 13.4764 19.8467 13.3548Z" fill="white" stroke="white" stroke-width="0.483713"/>
</g>
<defs>
<linearGradient id="paint0_linear_298_18870" x1="5.46027" y1="7.72285" x2="37.0923" y2="32.9532" gradientUnits="userSpaceOnUse">
<stop stop-color="#FF5900"/>
<stop offset="1" stop-color="#FF8340"/>
</linearGradient>
<clipPath id="clip0_298_18870">
<rect width="21.2834" height="21.2834" fill="white" transform="translate(10.1328 9.38184)"/>
</clipPath>
</defs>
</svg>
