<svg width="41" height="41" viewBox="0 0 41 41" fill="none" xmlns="http://www.w3.org/2000/svg">
<circle cx="20.5911" cy="20.1888" r="19.9583" fill="url(#paint0_linear_298_18893)"/>
<path d="M11.8301 29.3346C13.1362 30.9073 15.5654 30.9073 20.426 30.9073H21.2096C26.0702 30.9073 28.5005 30.9073 29.8065 29.3346M11.8301 29.3346C10.5241 27.7609 10.9725 25.373 11.8682 20.5952C12.5049 17.1995 12.8227 15.5006 14.0319 14.4971M29.8065 29.3346C31.1125 27.7609 30.6641 25.373 29.7684 20.5952C29.1317 17.1995 28.8128 15.5006 27.6037 14.4971M27.6037 14.4971C26.3956 13.4937 24.6662 13.4937 21.2107 13.4937H20.4249C16.9693 13.4937 15.241 13.4937 14.0319 14.4971" stroke="white" stroke-width="1.93485"/>
<path d="M22.9945 20.0237L18.6411 24.3771M18.6411 20.0237L22.9945 24.3771M17.5527 13.4936V12.4052C17.5527 11.5392 17.8967 10.7088 18.509 10.0965C19.1214 9.48413 19.9518 9.14014 20.8178 9.14014C21.6837 9.14014 22.5142 9.48413 23.1265 10.0965C23.7389 10.7088 24.0829 11.5392 24.0829 12.4052V13.4936" stroke="white" stroke-width="1.93485" stroke-linecap="round"/>
<defs>
<linearGradient id="paint0_linear_298_18893" x1="5.15168" y1="7.76191" x2="36.7837" y2="32.9922" gradientUnits="userSpaceOnUse">
<stop stop-color="#FF5900"/>
<stop offset="1" stop-color="#FF8340"/>
</linearGradient>
</defs>
</svg>
