<svg width="41" height="41" viewBox="0 0 41 41" fill="none" xmlns="http://www.w3.org/2000/svg">
<circle cx="20.2357" cy="20.1497" r="19.9583" fill="url(#paint0_linear_298_18883)"/>
<path d="M11.1309 18.8739C11.1309 19.5094 11.6442 20.0228 12.2797 20.0228C12.9151 20.0228 13.4285 19.5094 13.4285 18.8739C13.4285 16.9712 14.9722 15.4275 16.8749 15.4275H22.619V16.5763C22.619 17.0394 22.8991 17.4595 23.3299 17.639C23.7607 17.8185 24.2525 17.7179 24.5828 17.3912L26.8804 15.0936C27.3292 14.6448 27.3292 13.9161 26.8804 13.4673L24.5828 11.1697C24.2525 10.8394 23.7607 10.7425 23.3299 10.922C22.8991 11.1015 22.619 11.5179 22.619 11.981V13.1298H16.8749C13.7013 13.1298 11.1309 15.7003 11.1309 18.8739ZM29.5119 21.1716C29.5119 20.5361 28.9986 20.0228 28.3631 20.0228C27.7277 20.0228 27.2143 20.5361 27.2143 21.1716C27.2143 23.0743 25.6706 24.618 23.7679 24.618H18.0238V23.4692C18.0238 23.0061 17.7437 22.586 17.3129 22.4065C16.8821 22.227 16.3903 22.3276 16.06 22.6543L13.7624 24.9519C13.3136 25.4007 13.3136 26.1294 13.7624 26.5782L16.06 28.8758C16.3903 29.2061 16.8821 29.303 17.3129 29.1235C17.7437 28.944 18.0238 28.5276 18.0238 28.0609V26.9121H23.7679C26.9415 26.9121 29.5119 24.3416 29.5119 21.168V21.1716Z" fill="white"/>
<defs>
<linearGradient id="paint0_linear_298_18883" x1="4.79621" y1="7.72285" x2="36.4283" y2="32.9532" gradientUnits="userSpaceOnUse">
<stop stop-color="#FF5900"/>
<stop offset="1" stop-color="#FF8340"/>
</linearGradient>
</defs>
</svg>
